# xmcd
#
# Track frame offsets: 
#        150
#        14219
#        35211
#        56372
#        79768
#        105695
#        127077
#        159858
#        171572
#        197014
#        227992
#        243022
#        263171
#        291291
#        312358
#        323556
#        343753
#
# Disc length: 4718 seconds
#
# Revision: 1
# Processed by: cddbd v1.5.2PL0 Copyright (c) Steve Scherf et al.
# Submitted via: ExactAudioCopy v1.0b3
#
DISCID=f7126c11
DTITLE=David Baldacci - Im Bruchteil der Sekunde
DYEAR=2008
DGENRE=Hörbuch
TTITLE0=34 Im Bruchteil der Sekunde
TTITLE1=35 Im Bruchteil der Sekunde
TTITLE2=36 Im Bruchteil der Sekunde
TTITLE3=37 Im Bruchteil der Sekunde
TTITLE4=38 Im Bruchteil der Sekunde
TTITLE5=39 Im Bruchteil der Sekunde
TTITLE6=40 Im Bruchteil der Sekunde
TTITLE7=41 Im Bruchteil der Sekunde
TTITLE8=42 Im Bruchteil der Sekunde
TTITLE9=43 Im Bruchteil der Sekunde
TTITLE10=44 Im Bruchteil der Sekunde
TTITLE11=45 Im Bruchteil der Sekunde
TTITLE12=46 Im Bruchteil der Sekunde
TTITLE13=47 Im Bruchteil der Sekunde
TTITLE14=48 Im Bruchteil der Sekunde
TTITLE15=49 Im Bruchteil der Sekunde
TTITLE16=50 Im Bruchteil der Sekunde
EXTD=gelesen von Franziska Pigulla
EXTT0=
EXTT1=
EXTT2=
EXTT3=
EXTT4=
EXTT5=
EXTT6=
EXTT7=
EXTT8=
EXTT9=
EXTT10=
EXTT11=
EXTT12=
EXTT13=
EXTT14=
EXTT15=
EXTT16=
PLAYORDER=
